<svg width="32" height="32" viewBox="0 0 32 32" fill="none" xmlns="http://www.w3.org/2000/svg">
<path d="M3.584 5.002L4.998 3.588L8.414 7.002L7 8.417L3.584 5.002ZM23.581 24.992L24.996 23.578L28.41 26.994L26.996 28.408L23.581 24.992ZM11 2H13V6H11V2ZM2 11H6V13H2V11ZM26 19H30V21H26V19ZM19 26H21V30H19V26ZM16.58 21.07L12.87 24.79C12.4984 25.1616 12.0572 25.4564 11.5716 25.6576C11.086 25.8587 10.5656 25.9622 10.04 25.9622C9.51442 25.9622 8.99399 25.8587 8.50842 25.6576C8.02284 25.4564 7.58164 25.1616 7.21 24.79C6.45944 24.0394 6.03778 23.0215 6.03778 21.96C6.03778 20.8985 6.45944 19.8806 7.21 19.13L10.93 15.41L9.51 14L5.8 17.72C5.23067 18.2741 4.77706 18.9358 4.4655 19.6667C4.15393 20.3975 3.99062 21.183 3.98504 21.9775C3.97946 22.7719 4.13172 23.5596 4.43298 24.2948C4.73424 25.0299 5.17851 25.6979 5.74 26.26C6.30064 26.8161 6.96554 27.256 7.69656 27.5546C8.42759 27.8532 9.21036 28.0046 10 28C10.8034 28.0008 11.5989 27.8421 12.3405 27.5331C13.082 27.2241 13.7549 26.771 14.32 26.2L18 22.49L16.58 21.07ZM15.41 10.93L19.13 7.21C19.5016 6.83836 19.9428 6.54356 20.4284 6.34243C20.914 6.1413 21.4344 6.03778 21.96 6.03778C22.4856 6.03778 23.006 6.1413 23.4916 6.34243C23.9772 6.54356 24.4184 6.83836 24.79 7.21C25.1616 7.58164 25.4564 8.02284 25.6576 8.50842C25.8587 8.99399 25.9622 9.51442 25.9622 10.04C25.9622 10.5656 25.8587 11.086 25.6576 11.5716C25.4564 12.0572 25.1616 12.4984 24.79 12.87L21.07 16.59L22.49 18L26.2 14.28C26.7693 13.7259 27.2229 13.0642 27.5345 12.3333C27.8461 11.6025 28.0094 10.817 28.015 10.0225C28.0205 9.22807 27.8683 8.4404 27.567 7.70525C27.2658 6.97009 26.8215 6.30209 26.26 5.74C25.6994 5.18391 25.0345 4.74396 24.3034 4.44537C23.5724 4.14679 22.7896 3.99543 22 4C21.1966 3.99923 20.4011 4.15794 19.6595 4.46692C18.918 4.77591 18.2451 5.22902 17.68 5.8L14 9.51L15.41 10.93Z" fill="black"/>
</svg>
